<svg width="234" height="93" viewBox="0 0 234 93" fill="none" xmlns="http://www.w3.org/2000/svg">
<path d="M29.81 14.974C28.402 13.83 26.994 12.994 25.586 12.466C24.178 11.894 22.814 11.608 21.494 11.608C19.822 11.608 18.458 12.004 17.402 12.796C16.346 13.588 15.818 14.622 15.818 15.898C15.818 16.778 16.082 17.504 16.61 18.076C17.138 18.648 17.82 19.154 18.656 19.594C19.536 19.99 20.504 20.342 21.56 20.65C22.66 20.958 23.738 21.288 24.794 21.64C29.018 23.048 32.098 24.94 34.034 27.316C36.014 29.648 37.004 32.706 37.004 36.49C37.004 39.042 36.564 41.352 35.684 43.42C34.848 45.488 33.594 47.27 31.922 48.766C30.294 50.218 28.27 51.34 25.85 52.132C23.474 52.968 20.768 53.386 17.732 53.386C11.44 53.386 5.61003 51.516 0.242034 47.776L5.78603 37.348C7.72203 39.064 9.63603 40.34 11.528 41.176C13.42 42.012 15.29 42.43 17.138 42.43C19.25 42.43 20.812 41.946 21.824 40.978C22.88 40.01 23.408 38.91 23.408 37.678C23.408 36.93 23.276 36.292 23.012 35.764C22.748 35.192 22.308 34.686 21.692 34.246C21.076 33.762 20.262 33.322 19.25 32.926C18.282 32.53 17.094 32.09 15.686 31.606C14.014 31.078 12.364 30.506 10.736 29.89C9.15203 29.23 7.72203 28.372 6.44603 27.316C5.21403 26.26 4.20203 24.94 3.41003 23.356C2.66203 21.728 2.28803 19.682 2.28803 17.218C2.28803 14.754 2.68403 12.532 3.47603 10.552C4.31203 8.528 5.45603 6.812 6.90803 5.404C8.40403 3.952 10.208 2.83 12.32 2.038C14.476 1.246 16.874 0.849998 19.514 0.849998C21.978 0.849998 24.552 1.202 27.236 1.906C29.92 2.566 32.494 3.556 34.958 4.876L29.81 14.974ZM63.37 25.072H67.66C72.412 25.072 74.788 23.004 74.788 18.868C74.788 14.732 72.412 12.664 67.66 12.664H63.37V25.072ZM63.37 52H50.434V2.236H71.026C76.614 2.236 80.882 3.688 83.83 6.592C86.822 9.496 88.318 13.588 88.318 18.868C88.318 24.148 86.822 28.24 83.83 31.144C80.882 34.048 76.614 35.5 71.026 35.5H63.37V52ZM124.733 33.52L118.925 16.954L113.117 33.52H124.733ZM128.165 43.354H109.685L106.715 52H92.921L111.863 2.236H125.987L144.929 52H131.135L128.165 43.354ZM189.838 18.868C186.846 15.216 183.15 13.39 178.75 13.39C176.814 13.39 175.01 13.742 173.338 14.446C171.71 15.15 170.302 16.118 169.114 17.35C167.926 18.538 166.98 19.968 166.276 21.64C165.616 23.312 165.286 25.116 165.286 27.052C165.286 29.032 165.616 30.858 166.276 32.53C166.98 34.202 167.926 35.654 169.114 36.886C170.346 38.118 171.776 39.086 173.404 39.79C175.032 40.494 176.792 40.846 178.684 40.846C182.82 40.846 186.538 39.086 189.838 35.566V50.878L188.518 51.34C186.538 52.044 184.69 52.55 182.974 52.858C181.258 53.21 179.564 53.386 177.892 53.386C174.46 53.386 171.16 52.748 167.992 51.472C164.868 50.152 162.096 48.326 159.676 45.994C157.3 43.618 155.386 40.824 153.934 37.612C152.482 34.356 151.756 30.814 151.756 26.986C151.756 23.158 152.46 19.66 153.868 16.492C155.32 13.28 157.234 10.53 159.61 8.242C162.03 5.91 164.824 4.106 167.992 2.83C171.16 1.51 174.482 0.849998 177.958 0.849998C179.938 0.849998 181.874 1.07 183.766 1.51C185.702 1.906 187.726 2.544 189.838 3.424V18.868ZM231.615 13.192H216.237V21.508H230.757V32.464H216.237V41.044H231.615V52H203.301V2.236H231.615V13.192ZM6.16406 79.168V92H2.84375V63.4062H8.83984C10.9362 63.4062 12.4792 63.5169 13.4688 63.7383C14.4583 63.9596 15.3177 64.3242 16.0469 64.832C16.9583 65.4831 17.668 66.375 18.1758 67.5078C18.6966 68.6406 18.957 69.8971 18.957 71.2773C18.957 72.6576 18.6966 73.9141 18.1758 75.0469C17.668 76.1797 16.9583 77.0716 16.0469 77.7227C15.3177 78.2435 14.4583 78.6146 13.4688 78.8359C12.4922 79.0573 10.9492 79.168 8.83984 79.168H7.88281H6.16406ZM6.16406 76.082H7.88281C10.7995 76.082 12.7591 75.7435 13.7617 75.0664C14.7773 74.3763 15.2852 73.1784 15.2852 71.4727C15.2852 69.6497 14.7643 68.3672 13.7227 67.625C12.694 66.8828 10.7474 66.5117 7.88281 66.5117H6.16406V76.082ZM35.1562 92V63.4062H41.875C43.7891 63.4062 45.1888 63.5169 46.0742 63.7383C46.9727 63.9466 47.7604 64.3112 48.4375 64.832C49.2839 65.4961 49.9414 66.388 50.4102 67.5078C50.8789 68.6146 51.1133 69.8451 51.1133 71.1992C51.1133 73.543 50.4557 75.3268 49.1406 76.5508C47.8385 77.7617 45.9245 78.3672 43.3984 78.3672H42.793L53.7109 92H49.3945L38.9648 78.3672H38.4766V92H35.1562ZM38.4766 66.2773V75.8477H41.0742C43.7305 75.8477 45.5078 75.5091 46.4062 74.832C47.3047 74.1419 47.7539 72.944 47.7539 71.2383C47.7539 69.4023 47.2917 68.1198 46.3672 67.3906C45.4427 66.6484 43.6784 66.2773 41.0742 66.2773H38.4766ZM82.5273 89.5586C84.0898 89.5586 85.5742 89.2656 86.9805 88.6797C88.3997 88.0807 89.6758 87.2148 90.8086 86.082C91.9284 84.9622 92.7812 83.6927 93.3672 82.2734C93.9531 80.8542 94.2461 79.3503 94.2461 77.7617C94.2461 76.1602 93.9466 74.6367 93.3477 73.1914C92.7617 71.7461 91.9154 70.4701 90.8086 69.3633C89.6888 68.2435 88.4193 67.3906 87 66.8047C85.5938 66.2188 84.1029 65.9258 82.5273 65.9258C80.9388 65.9258 79.4349 66.2188 78.0156 66.8047C76.5964 67.3906 75.3398 68.2435 74.2461 69.3633C73.1263 70.4961 72.2734 71.7786 71.6875 73.2109C71.1016 74.6432 70.8086 76.1602 70.8086 77.7617C70.8086 79.3503 71.0951 80.8477 71.668 82.2539C72.2539 83.6602 73.1133 84.9362 74.2461 86.082C75.3919 87.2279 76.6615 88.0938 78.0547 88.6797C79.4609 89.2656 80.9518 89.5586 82.5273 89.5586ZM97.8008 77.7617C97.8008 79.806 97.4232 81.7331 96.668 83.543C95.9128 85.3529 94.8125 86.9609 93.3672 88.3672C91.9219 89.7734 90.2552 90.8607 88.3672 91.6289C86.4922 92.3841 84.5456 92.7617 82.5273 92.7617C80.5091 92.7617 78.5625 92.3841 76.6875 91.6289C74.8255 90.8607 73.1719 89.7734 71.7266 88.3672C70.2682 86.9479 69.1549 85.3333 68.3867 83.5234C67.6315 81.7135 67.2539 79.793 67.2539 77.7617C67.2539 75.7174 67.6315 73.7904 68.3867 71.9805C69.1549 70.1576 70.2682 68.5365 71.7266 67.1172C73.1589 65.724 74.8125 64.6497 76.6875 63.8945C78.5625 63.1393 80.5091 62.7617 82.5273 62.7617C84.5586 62.7617 86.5117 63.1393 88.3867 63.8945C90.2747 64.6497 91.9349 65.724 93.3672 67.1172C94.8125 68.5234 95.9128 70.138 96.668 71.9609C97.4232 73.7708 97.8008 75.7044 97.8008 77.7617ZM120.816 63.4062H124.254V85.7109C124.254 88.1068 123.72 89.8841 122.652 91.043C121.598 92.1888 119.97 92.7617 117.77 92.7617C116.598 92.7617 115.536 92.5273 114.586 92.0586C113.648 91.6029 112.763 90.8932 111.93 89.9297L114.176 87.6836C114.879 88.4128 115.53 88.9336 116.129 89.2461C116.728 89.5586 117.353 89.7148 118.004 89.7148C119.033 89.7148 119.755 89.3307 120.172 88.5625C120.602 87.7943 120.816 86.2839 120.816 84.0312V63.4062ZM142.875 92V63.4062H157.953V66.5117H146.273V74.7148H157.953V77.8789H146.273V88.8359H157.953V92H142.875ZM198.938 70.2422C197.57 68.7578 196.112 67.6641 194.562 66.9609C193.013 66.2448 191.301 65.8867 189.426 65.8867C187.915 65.8867 186.438 66.1927 184.992 66.8047C183.56 67.4167 182.316 68.2695 181.262 69.3633C180.168 70.4961 179.348 71.7656 178.801 73.1719C178.254 74.5651 177.98 76.1081 177.98 77.8008C177.98 79.1289 178.143 80.3529 178.469 81.4727C178.794 82.5924 179.283 83.6211 179.934 84.5586C181.079 86.1862 182.486 87.4427 184.152 88.3281C185.832 89.2005 187.642 89.6367 189.582 89.6367C191.405 89.6367 193.098 89.2591 194.66 88.5039C196.223 87.7487 197.648 86.6224 198.938 85.125V89.6367C197.518 90.6654 195.988 91.4466 194.348 91.9805C192.72 92.5013 191.034 92.7617 189.289 92.7617C187.779 92.7617 186.307 92.5339 184.875 92.0781C183.443 91.6354 182.102 90.9844 180.852 90.125C178.768 88.6797 177.173 86.9023 176.066 84.793C174.973 82.6836 174.426 80.3659 174.426 77.8398C174.426 75.6393 174.79 73.6406 175.52 71.8438C176.262 70.0339 177.388 68.3932 178.898 66.9219C180.357 65.5156 181.971 64.4674 183.742 63.7773C185.513 63.0742 187.447 62.7227 189.543 62.7227C191.197 62.7227 192.798 62.9766 194.348 63.4844C195.897 63.9792 197.427 64.7539 198.938 65.8086V70.2422ZM221.758 92V66.6484H213.672V63.4062H233.242V66.6484H225.195V92H221.758Z" fill="#222240"/>
</svg>
