<svg width="48" height="50" viewBox="0 0 48 50" fill="none" xmlns="http://www.w3.org/2000/svg">
<path d="M47.3999 40.44C46.5349 38.86 46.1399 36.705 45.6799 34.21C45.1549 31.355 44.5549 28.12 43.0799 24.95C41.9599 22.55 40.8149 20.345 39.1299 19.755C38.4449 19.515 37.7199 19.565 37.0299 19.905C36.4899 20.17 35.9649 20.59 35.6549 21.255C35.3149 20.945 34.9299 20.69 34.4999 20.525C33.7099 20.225 32.8549 20.285 32.0299 20.69C31.2249 21.085 30.6449 21.6 30.2949 22.225C29.9749 21.96 29.6199 21.74 29.2199 21.595C28.3899 21.295 27.5249 21.365 26.6399 21.8C25.8799 22.175 25.3349 22.7 25.0199 23.36C23.5449 20.855 21.8199 17.835 21.1899 16.56C20.0599 14.26 17.6799 13.885 16.0199 14.705C14.3849 15.51 13.3099 17.51 14.4249 19.78C15.4949 21.96 17.0049 24.34 18.4649 26.645C20.1499 29.305 22.0149 32.25 22.5799 34.055C22.1299 33.62 21.4749 32.925 20.5399 31.815C19.0299 30.025 16.8949 30.01 15.6499 30.91C14.5549 31.705 13.7999 33.485 15.2849 35.895C17.1049 38.845 25.2399 44.94 27.2999 45.91C28.7899 46.61 30.8399 48.405 31.3649 49.47C31.4799 49.705 31.6899 49.88 31.9399 49.96C32.0299 49.99 32.1249 50 32.2199 50C32.3849 50 32.5449 49.96 32.6899 49.875L47.0299 41.725C47.4849 41.465 47.6449 40.895 47.3999 40.44ZM32.5349 47.775C31.4699 46.38 29.5249 44.85 28.1149 44.185C26.2849 43.325 18.5049 37.48 16.9099 34.895C16.2399 33.81 16.1849 32.875 16.7699 32.45C16.9699 32.305 17.2299 32.225 17.5149 32.225C18.0249 32.225 18.6099 32.475 19.0849 33.035C21.8599 36.325 22.8399 36.83 23.6749 36.625C24.1399 36.505 24.4799 36.13 24.5899 35.62C25.0199 33.57 23.1499 30.485 20.0699 25.62C18.6349 23.355 17.1549 21.015 16.1249 18.93C15.4899 17.64 16.1199 16.765 16.8499 16.405C17.7099 15.985 18.8499 16.125 19.4749 17.395C20.2449 18.96 22.3999 22.665 23.0399 23.76C25.8649 28.59 25.9299 28.615 26.3349 28.75C26.5749 28.83 26.8349 28.815 27.0599 28.705C27.2899 28.59 27.4699 28.385 27.5499 28.14C27.6799 27.735 27.5249 27.44 27.3449 27.095C27.0749 26.585 26.3649 25.23 26.6599 24.32C26.7699 23.98 27.0349 23.71 27.4649 23.495C28.0049 23.23 28.3499 23.3 28.5599 23.375C29.2649 23.63 29.8399 24.52 30.2449 25.305C30.3549 25.57 30.4749 25.81 30.5899 26.02C30.6199 26.09 30.6499 26.15 30.6749 26.21C30.9399 26.8 31.0849 27.12 31.5199 27.28C31.7649 27.365 32.0449 27.35 32.2749 27.24C32.5149 27.125 32.6999 26.9 32.7749 26.645C32.9049 26.205 32.7149 25.89 32.4999 25.525C32.4399 25.425 32.3649 25.3 32.2899 25.16C32.1999 24.965 32.0999 24.75 31.9849 24.525C31.8349 24.135 31.7449 23.715 31.8499 23.36C31.9599 22.99 32.2949 22.665 32.8549 22.39C33.3249 22.16 33.6249 22.225 33.8149 22.295C34.8799 22.695 35.6999 24.685 36.0099 25.435C36.2249 25.96 36.3549 26.275 36.7799 26.435C37.0249 26.53 37.3049 26.515 37.5449 26.4C37.9249 26.21 38.2949 25.795 37.8849 24.88C36.7999 22.465 37.3549 21.855 37.8599 21.605C38.1549 21.46 38.3399 21.495 38.4849 21.545C39.5499 21.92 40.7149 24.41 41.3399 25.75C42.7149 28.7 43.2899 31.805 43.7949 34.55C44.1949 36.725 44.5749 38.795 45.3099 40.505L32.5349 47.775Z" fill="#402327"/>
<path d="M9.89485 2.53504C9.62985 2.08004 9.04985 1.92504 8.59485 2.18504C8.13985 2.45004 7.98485 3.03004 8.24485 3.48504L12.0499 10.075C12.2249 10.38 12.5449 10.55 12.8749 10.55C13.0349 10.55 13.1999 10.51 13.3499 10.42C13.8049 10.155 13.9599 9.57504 13.6999 9.12004L9.89485 2.53504Z" fill="#402327"/>
<path d="M1.10983 13.0049L8.26483 15.6099C8.36983 15.6499 8.47983 15.6699 8.58983 15.6699C8.97983 15.6699 9.34483 15.4299 9.48483 15.0449C9.66483 14.5499 9.40983 14.0049 8.91483 13.8249L1.76483 11.2149C1.27483 11.0349 0.724834 11.2899 0.544834 11.7849C0.364834 12.2799 0.619834 12.8249 1.10983 13.0049Z" fill="#402327"/>
<path d="M9.4849 21.055C9.3049 20.56 8.7599 20.305 8.2649 20.485L1.1099 23.09C0.614899 23.27 0.359899 23.815 0.539899 24.31C0.679899 24.695 1.0449 24.935 1.4349 24.935C1.5449 24.935 1.6549 24.915 1.7599 24.875L8.9149 22.27C9.4099 22.095 9.6649 21.55 9.4849 21.055Z" fill="#402327"/>
<path d="M13.3499 25.665C12.8949 25.4 12.3149 25.56 12.0499 26.015L8.24488 32.605C7.97988 33.06 8.13988 33.64 8.59488 33.905C8.74488 33.99 8.90988 34.03 9.06988 34.03C9.39988 34.03 9.71988 33.86 9.89488 33.555L13.6999 26.965C13.9599 26.505 13.8049 25.925 13.3499 25.665Z" fill="#402327"/>
<path d="M26.5449 18.045C26.5449 18.57 26.9699 18.995 27.4949 18.995H35.1049C35.6299 18.995 36.0549 18.57 36.0549 18.045C36.0549 17.52 35.6299 17.095 35.1049 17.095H27.4949C26.9699 17.095 26.5449 17.52 26.5449 18.045Z" fill="#402327"/>
<path d="M25.2148 12.7349C25.4298 12.7349 25.6498 12.6599 25.8248 12.5099L31.6548 7.61493C32.0598 7.27493 32.1098 6.67493 31.7748 6.27493C31.4348 5.87493 30.8348 5.81993 30.4348 6.15993L24.6048 11.0499C24.1998 11.3899 24.1498 11.9899 24.4848 12.3899C24.6748 12.6149 24.9448 12.7349 25.2148 12.7349Z" fill="#402327"/>
<path d="M19.2749 9.38501C19.3299 9.39501 19.3849 9.40001 19.4399 9.40001C19.8949 9.40001 20.2949 9.07501 20.3749 8.61501L21.6999 1.11501C21.7899 0.595006 21.4449 0.105006 20.9299 0.0150061C20.4099 -0.0749939 19.9199 0.270006 19.8299 0.785006L18.5099 8.28001C18.4149 8.80001 18.7599 9.29501 19.2749 9.38501Z" fill="#402327"/>
</svg>
