{
    "asset" : {
        "generator" : "Khronos glTF Blender I/O v1.2.75",
        "version" : "2.0"
    },
    "scene" : 0,
    "scenes" : [
        {
            "name" : "Scene",
            "nodes" : [
                0,
                1,
                2
            ]
        }
    ],
    "nodes" : [
        {
            "name" : "Light",
            "rotation" : [
                0.16907575726509094,
                0.7558803558349609,
                -0.27217137813568115,
                0.570947527885437
            ],
            "translation" : [
                4.076245307922363,
                5.903861999511719,
                -1.0054539442062378
            ]
        },
        {
            "name" : "Camera",
            "rotation" : [
                0.483536034822464,
                0.33687159419059753,
                -0.20870360732078552,
                0.7804827094078064
            ],
            "translation" : [
                7.358891487121582,
                4.958309173583984,
                6.925790786743164
            ]
        },
        {
            "mesh" : 0,
            "name" : "Icosphere",
            "scale" : [
                1.8596436977386475,
                1.8596436977386475,
                1.8596436977386475
            ]
        }
    ],
    "materials" : [
        {
            "doubleSided" : true,
            "emissiveFactor" : [
                0,
                0,
                0
            ],
            "name" : "Material.001",
            "pbrMetallicRoughness" : {
                "baseColorFactor" : [
                    0.009828148409724236,
                    0.008140784688293934,
                    0.006381672341376543,
                    1
                ],
                "metallicFactor" : 0,
                "roughnessFactor" : 0.8409090638160706
            }
        }
    ],
    "meshes" : [
        {
            "name" : "Icosphere",
            "primitives" : [
                {
                    "attributes" : {
                        "POSITION" : 0,
                        "NORMAL" : 1,
                        "TEXCOORD_0" : 2
                    },
                    "indices" : 3,
                    "material" : 0
                }
            ]
        }
    ],
    "accessors" : [
        {
            "bufferView" : 0,
            "componentType" : 5126,
            "count" : 12854,
            "max" : [
                1.7393096685409546,
                1.785062551498413,
                1.8109358549118042
            ],
            "min" : [
                -1.8441638946533203,
                -1.8871139287948608,
                -1.7912826538085938
            ],
            "type" : "VEC3"
        },
        {
            "bufferView" : 1,
            "componentType" : 5126,
            "count" : 12854,
            "type" : "VEC3"
        },
        {
            "bufferView" : 2,
            "componentType" : 5126,
            "count" : 12854,
            "type" : "VEC2"
        },
        {
            "bufferView" : 3,
            "componentType" : 5123,
            "count" : 77112,
            "type" : "SCALAR"
        }
    ],
    "bufferViews" : [
        {
            "buffer" : 0,
            "byteLength" : 154248,
            "byteOffset" : 0
        },
        {
            "buffer" : 0,
            "byteLength" : 154248,
            "byteOffset" : 154248
        },
        {
            "buffer" : 0,
            "byteLength" : 102832,
            "byteOffset" : 308496
        },
        {
            "buffer" : 0,
            "byteLength" : 154224,
            "byteOffset" : 411328
        }
    ],
    "buffers" : [
        {
            "byteLength" : 565552,
            "uri" : "asteroid.bin"
        }
    ]
}
