<svg width="58" height="58" viewBox="0 0 58 58" fill="none" xmlns="http://www.w3.org/2000/svg">
<path d="M43.0973 14.99C43.7827 15.6794 44.417 16.4087 45.0118 17.1778C44.8928 17.024 44.7739 16.8701 44.6549 16.7163C45.8104 18.2375 46.7733 19.8955 47.5153 21.656C47.4417 21.4737 47.3624 21.2914 47.2887 21.109C48.0477 22.9322 48.5631 24.8466 48.8237 26.8008C48.7954 26.6014 48.767 26.3963 48.7444 26.1969C48.9993 28.1682 48.9993 30.1623 48.7444 32.1336C48.7727 31.9342 48.801 31.7291 48.8237 31.5297C48.5631 33.4839 48.0477 35.3982 47.2887 37.2214C47.3624 37.0391 47.4417 36.8568 47.5153 36.6745C46.7733 38.435 45.8161 40.0986 44.6549 41.6142C44.7739 41.4603 44.8928 41.3065 45.0118 41.1527C43.828 42.691 42.4516 44.0755 40.9223 45.2662C41.0752 45.1466 41.2282 45.0269 41.3811 44.9073C39.8688 46.0696 38.2206 47.0381 36.4704 47.7845C36.6516 47.7104 36.8329 47.6307 37.0141 47.5566C35.2016 48.32 33.2985 48.8385 31.3557 49.1006C31.554 49.0721 31.7579 49.0436 31.9561 49.0208C29.9963 49.2772 28.0139 49.2772 26.0542 49.0208C26.2524 49.0493 26.4563 49.0778 26.6545 49.1006C24.7118 48.8385 22.8086 48.32 20.9961 47.5566C21.1774 47.6307 21.3586 47.7104 21.5399 47.7845C19.7897 47.0381 18.1358 46.0753 16.6292 44.9073C16.7821 45.0269 16.935 45.1466 17.0879 45.2662C15.5586 44.0755 14.1823 42.691 12.9985 41.1527C13.1174 41.3065 13.2364 41.4603 13.3553 41.6142C12.1999 40.0929 11.237 38.435 10.495 36.6745C10.5686 36.8568 10.6479 37.0391 10.7215 37.2214C9.96255 35.3982 9.44712 33.4839 9.18657 31.5297C9.21489 31.7291 9.24321 31.9342 9.26587 32.1336C9.01099 30.1623 9.01099 28.1682 9.26587 26.1969C9.23755 26.3963 9.20923 26.6014 9.18657 26.8008C9.44712 24.8466 9.96255 22.9322 10.7215 21.109C10.6479 21.2914 10.5686 21.4737 10.495 21.656C11.237 19.8955 12.1942 18.2318 13.3553 16.7163C13.2364 16.8701 13.1174 17.024 12.9985 17.1778C14.1823 15.6395 15.5586 14.255 17.0879 13.0643C16.935 13.1839 16.7821 13.3035 16.6292 13.4232C18.1415 12.2609 19.7897 11.2923 21.5399 10.546C21.3586 10.62 21.1774 10.6998 20.9961 10.7739C22.8086 10.0104 24.7118 9.49195 26.6545 9.22987C26.4563 9.25836 26.2524 9.28684 26.0542 9.30963C28.0139 9.05325 29.9963 9.05325 31.9561 9.30963C31.7579 9.28115 31.554 9.25266 31.3557 9.22987C33.2985 9.49195 35.2016 10.0104 37.0141 10.7739C36.8329 10.6998 36.6516 10.62 36.4704 10.546C38.2206 11.2923 39.8745 12.2552 41.3811 13.4232C41.2282 13.3035 41.0752 13.1839 40.9223 13.0643C41.687 13.6625 42.412 14.3006 43.0973 14.99C43.9356 15.8332 45.4706 15.8959 46.3032 14.99C47.1301 14.0841 47.1981 12.6654 46.3032 11.7652C42.7801 8.23851 38.1639 5.76013 33.2475 4.93969C30.8573 4.54087 28.4557 4.43832 26.0485 4.75168C24.7344 4.9226 23.4374 5.1562 22.1629 5.53223C20.9168 5.89686 19.6991 6.38115 18.5209 6.9281C13.9727 9.04755 10.0928 12.7338 7.65161 17.1265C5.2727 21.411 4.15688 26.4646 4.63833 31.3588C4.88755 33.9055 5.47095 36.3497 6.45649 38.7085C7.4647 41.1128 8.81841 43.2949 10.512 45.2833C13.7575 49.1006 18.2604 51.8696 23.1088 53.0603C27.827 54.2169 32.9303 53.989 37.4842 52.2513C38.7077 51.7841 39.9028 51.2485 41.0413 50.599C42.2137 49.9324 43.3012 49.1519 44.3547 48.3144C46.3542 46.7248 48.0647 44.7819 49.4694 42.6568C52.1711 38.566 53.5758 33.5694 53.4626 28.6582C53.3493 23.7299 51.7747 18.7902 48.8633 14.8077C48.076 13.7365 47.2377 12.7053 46.3032 11.7652C45.4649 10.922 43.9243 10.8593 43.0973 11.7652C42.2647 12.6768 42.2024 14.0898 43.0973 14.99Z" fill="#A93131"/>
<rect x="35.5566" y="20" width="5" height="22" rx="2.5" transform="rotate(45 35.5566 20)" fill="#A93131"/>
<rect x="39.0918" y="35.5564" width="5" height="22" rx="2.5" transform="rotate(135 39.0918 35.5564)" fill="#A93131"/>
</svg>
