<svg width="32" height="32" viewBox="0 0 32 32" fill="none" xmlns="http://www.w3.org/2000/svg">
<path d="M31.0832 24.2111L27.5415 20.7261C27.2784 20.4626 26.9659 20.2537 26.6219 20.1111C26.278 19.9685 25.9093 19.8951 25.5369 19.8951C25.1646 19.8951 24.7959 19.9685 24.452 20.1111C24.108 20.2537 23.7955 20.4626 23.5324 20.7261L23.4049 20.8536L20.6424 18.0911L25.6574 13.0761C25.9212 12.8106 26.0693 12.4516 26.0693 12.0773C26.0693 11.7031 25.9212 11.344 25.6574 11.0786L20.7274 6.06358C20.4619 5.79972 20.1029 5.65162 19.7286 5.65162C19.3544 5.65162 18.9953 5.79972 18.7299 6.06358L13.7007 11.0786L11.1224 8.50025L11.2499 8.37275C11.5133 8.10961 11.7223 7.79712 11.8649 7.45316C12.0075 7.1092 12.0808 6.74051 12.0808 6.36816C12.0808 5.99582 12.0075 5.62713 11.8649 5.28317C11.7223 4.9392 11.5133 4.62672 11.2499 4.36358L7.7082 0.892747C7.44506 0.629313 7.13257 0.420329 6.78861 0.277744C6.44465 0.135158 6.07596 0.0617676 5.70362 0.0617676C5.33127 0.0617676 4.96258 0.135158 4.61862 0.277744C4.27466 0.420329 3.96217 0.629313 3.69903 0.892747L1.51737 3.13108C1.00247 3.66007 0.714355 4.36912 0.714355 5.10733C0.714355 5.84554 1.00247 6.55459 1.51737 7.08358L5.00237 10.6252C5.26551 10.8887 5.57799 11.0977 5.92195 11.2402C6.26591 11.3828 6.6346 11.4562 7.00695 11.4562C7.37929 11.4562 7.74798 11.3828 8.09195 11.2402C8.43591 11.0977 8.74839 10.8887 9.01153 10.6252L9.12487 10.4977L11.7032 13.0761L6.6882 18.1052C6.42434 18.3707 6.27624 18.7297 6.27624 19.104C6.27624 19.4783 6.42434 19.8373 6.6882 20.1027L11.7032 25.1177C11.9686 25.3816 12.3277 25.5297 12.7019 25.5297C13.0762 25.5297 13.4353 25.3816 13.7007 25.1177L18.7157 20.1027L21.4782 22.8652L21.3507 22.9927C21.0873 23.2559 20.8783 23.5684 20.7357 23.9123C20.5931 24.2563 20.5197 24.625 20.5197 24.9973C20.5197 25.3697 20.5931 25.7384 20.7357 26.0823C20.8783 26.4263 21.0873 26.7388 21.3507 27.0019L24.8357 30.4869C25.0988 30.7503 25.4113 30.9593 25.7553 31.1019C26.0992 31.2445 26.4679 31.3179 26.8403 31.3179C27.2126 31.3179 27.5813 31.2445 27.9253 31.1019C28.2692 30.9593 28.5817 30.7503 28.8449 30.4869L31.0974 28.2344C31.362 27.9701 31.5717 27.656 31.7143 27.3102C31.8569 26.9644 31.9297 26.5938 31.9284 26.2198C31.9271 25.8458 31.8517 25.4757 31.7066 25.1309C31.5616 24.7862 31.3497 24.4735 31.0832 24.2111ZM3.4582 5.14275L5.76737 2.83358L9.25237 6.37525L6.99987 8.62775L3.4582 5.14275ZM12.624 22.1427L9.69153 19.0969L19.7215 9.06691L22.7249 12.0702L12.624 22.1427ZM26.7907 28.4894L23.2915 24.9761L25.6007 22.6669L29.0857 26.1519L26.7907 28.4894Z" fill="#F5F5EB"/>
</svg>
