<svg width="32" height="32" viewBox="0 0 32 32" fill="none" xmlns="http://www.w3.org/2000/svg">
<path d="M16.2081 0.00029859C12.3301 0.0127629 8.59617 1.4707 5.73577 4.08924C2.87537 6.70777 1.09408 10.2988 0.739948 14.1605C0.38582 18.0223 1.4843 21.8773 3.82076 24.9724C6.15721 28.0675 9.56375 30.1803 13.3748 30.8978C13.521 30.9459 13.6741 30.9698 13.8281 30.9686C15.9559 31.3111 18.1316 31.2085 20.2177 30.6673C22.3038 30.1262 24.255 29.1581 25.948 27.8245C27.6409 26.4908 29.0388 24.8204 30.0533 22.919C31.0678 21.0175 31.6769 18.9263 31.8421 16.7774C32.0072 14.6286 31.7248 12.4689 31.0128 10.4347C30.3007 8.40055 29.1745 6.53622 27.7052 4.95951C26.2359 3.3828 24.4556 2.12799 22.4766 1.27439C20.4977 0.420795 18.3632 -0.0130422 16.2081 0.00029859ZM11.1081 3.9103C11.2729 4.48952 11.3008 5.09916 11.1893 5.69099C11.0779 6.28282 10.8303 6.84061 10.4661 7.32024C10.102 7.79987 9.63116 8.18818 9.091 8.45446C8.55084 8.72074 7.95613 8.85769 7.35392 8.85446C6.76759 8.8683 6.18594 8.74712 5.65392 8.5003C7.00152 6.48547 8.89268 4.89394 11.1081 3.9103ZM10.5414 26.2086C10.5346 25.8293 10.6295 25.4551 10.8162 25.1248C11.0029 24.7945 11.2747 24.5202 11.6032 24.3305C11.9317 24.1407 12.305 24.0423 12.6844 24.0456C13.0638 24.0489 13.4354 24.1537 13.7606 24.3491C14.0858 24.5445 14.3528 24.8234 14.5337 25.1569C14.7147 25.4903 14.8031 25.8662 14.7898 26.2453C14.7764 26.6245 14.6618 26.9932 14.4578 27.3131C14.2538 27.633 13.9679 27.8924 13.6298 28.0645C12.6498 27.8523 11.6987 27.5242 10.7964 27.087C10.6482 26.8163 10.5612 26.5165 10.5414 26.2086ZM17.1572 28.3336C17.4376 27.7037 17.583 27.0222 17.5843 26.3327C17.5856 25.6433 17.4427 24.9612 17.1648 24.3303C16.8868 23.6993 16.48 23.1335 15.9704 22.6691C15.4608 22.2047 14.8598 21.852 14.2058 21.6337C13.5518 21.4154 12.8594 21.3362 12.1731 21.4014C11.4867 21.4665 10.8216 21.6745 10.2203 22.0119C9.6191 22.3494 9.0951 22.8088 8.68197 23.3608C8.26884 23.9127 7.97571 24.545 7.82142 25.217C5.85074 23.5031 4.45809 21.2219 3.83421 18.6858C3.21034 16.1498 3.38575 13.4828 4.33642 11.0503C5.26566 11.5287 6.29463 11.781 7.33975 11.787C8.38502 11.7847 9.41545 11.5394 10.3497 11.0706C11.2839 10.6017 12.0963 9.92211 12.7229 9.08539C13.3494 8.24868 13.7728 7.27777 13.9597 6.24934C14.1466 5.22091 14.0918 4.16311 13.7998 3.15947C15.5269 2.76876 17.3166 2.74212 19.0546 3.08126C20.7927 3.4204 22.441 4.11786 23.8946 5.12922C25.3483 6.14058 26.5753 7.44365 27.4975 8.9554C28.4197 10.4671 29.0168 12.1544 29.2509 13.9097C29.485 15.665 29.3509 17.4498 28.8572 19.1504C28.3634 20.851 27.5208 22.4301 26.3831 23.7871C25.2453 25.144 23.8374 26.2491 22.2489 27.0319C20.6605 27.8147 18.9265 28.258 17.1572 28.3336Z" fill="#F5F5EB"/>
<path d="M21.1668 7.0835C20.1862 7.0835 19.2275 7.3743 18.4121 7.91913C17.5967 8.46395 16.9612 9.23834 16.5859 10.1444C16.2106 11.0504 16.1125 12.0473 16.3038 13.0092C16.4951 13.971 16.9673 14.8545 17.6608 15.5479C18.3542 16.2413 19.2377 16.7136 20.1995 16.9049C21.1613 17.0962 22.1583 16.998 23.0643 16.6227C23.9703 16.2474 24.7447 15.6119 25.2895 14.7965C25.8344 13.9811 26.1252 13.0225 26.1252 12.0418C26.1252 10.7268 25.6028 9.46563 24.6729 8.53576C23.743 7.60589 22.4819 7.0835 21.1668 7.0835ZM21.1668 14.1668C20.7465 14.1668 20.3357 14.0422 19.9862 13.8087C19.6368 13.5752 19.3644 13.2433 19.2036 12.855C19.0428 12.4667 19.0007 12.0395 19.0827 11.6273C19.1647 11.2151 19.367 10.8364 19.6642 10.5392C19.9614 10.242 20.3401 10.0397 20.7523 9.95766C21.1645 9.87567 21.5917 9.91775 21.98 10.0786C22.3683 10.2394 22.7002 10.5118 22.9337 10.8612C23.1672 11.2107 23.2918 11.6215 23.2918 12.0418C23.2918 12.6054 23.0679 13.1459 22.6694 13.5444C22.2709 13.9429 21.7304 14.1668 21.1668 14.1668Z" fill="#F5F5EB"/>
</svg>
