<svg width="32" height="32" viewBox="0 0 32 32" fill="none" xmlns="http://www.w3.org/2000/svg">
<path d="M19.5807 20.7833C19.184 20.2635 18.6728 19.8422 18.0868 19.5522C17.5008 19.2622 16.8557 19.1114 16.2019 19.1114C15.5481 19.1114 14.903 19.2622 14.317 19.5522C13.731 19.8422 13.2198 20.2635 12.8232 20.7833C12.1168 20.2569 11.5428 19.5731 11.1469 18.7862C10.751 17.9993 10.544 17.1309 10.5423 16.2499C10.5423 15.8742 10.3931 15.5139 10.1274 15.2482C9.86171 14.9825 9.50137 14.8333 9.12565 14.8333C8.74993 14.8333 8.38959 14.9825 8.12392 15.2482C7.85824 15.5139 7.70898 15.8742 7.70898 16.2499C7.71051 17.7405 8.10399 19.2045 8.84995 20.495C9.5959 21.7855 10.6681 22.8572 11.959 23.6024C11.959 24.7296 12.4068 25.8106 13.2038 26.6076C14.0008 27.4047 15.0818 27.8524 16.209 27.8524C17.3362 27.8524 18.4172 27.4047 19.2142 26.6076C20.0112 25.8106 20.459 24.7296 20.459 23.6024C21.5446 22.978 22.4788 22.1214 23.1948 21.0938C23.9108 20.0663 24.3909 18.8932 24.6007 17.6585C24.8106 16.4239 24.745 15.1581 24.4086 13.9517C24.0723 12.7453 23.4735 11.6281 22.6552 10.6801C21.8368 9.73208 20.8191 8.9766 19.6747 8.46772C18.5304 7.95883 17.2877 7.7091 16.0356 7.73639C14.7835 7.76369 13.5529 8.06733 12.4319 8.6256C11.3108 9.18388 10.3269 9.98299 9.55065 10.9658C9.3177 11.2607 9.21146 11.6361 9.2553 12.0094C9.29913 12.3827 9.48946 12.7232 9.7844 12.9562C10.0793 13.1891 10.4547 13.2954 10.828 13.2515C11.2013 13.2077 11.5419 13.0174 11.7748 12.7224C12.2726 12.0816 12.9023 11.5552 13.6211 11.1788C14.34 10.8024 15.1313 10.5848 15.9415 10.5406C16.7518 10.4965 17.562 10.6269 18.3175 10.923C19.073 11.2191 19.7561 11.674 20.3206 12.2569C20.8851 12.8398 21.3178 13.5372 21.5894 14.3018C21.8611 15.0664 21.9654 15.8804 21.8952 16.6888C21.8251 17.4972 21.5821 18.2811 21.1828 18.9875C20.7835 19.6939 20.2371 20.3063 19.5807 20.7833ZM16.209 24.7499C15.9288 24.7499 15.6549 24.6669 15.4219 24.5112C15.189 24.3555 15.0074 24.1343 14.9002 23.8754C14.7929 23.6165 14.7649 23.3317 14.8195 23.0569C14.8742 22.7821 15.0091 22.5297 15.2073 22.3315C15.4054 22.1334 15.6578 21.9985 15.9326 21.9438C16.2074 21.8892 16.4923 21.9172 16.7511 22.0244C17.01 22.1317 17.2312 22.3132 17.3869 22.5462C17.5426 22.7792 17.6257 23.0531 17.6257 23.3333C17.6257 23.709 17.4764 24.0693 17.2107 24.335C16.945 24.6007 16.5847 24.7499 16.209 24.7499Z" fill="#F5F5EB"/>
<path d="M30.8997 11.0225C30.77 10.6675 30.5047 10.3785 30.162 10.2191C29.8192 10.0596 29.4272 10.0429 29.0722 10.1725C28.7171 10.3022 28.4281 10.5675 28.2687 10.9103C28.1093 11.253 28.0925 11.645 28.2222 12C28.8448 13.7513 29.077 15.6176 28.9025 17.468C28.728 19.3185 28.1511 21.1084 27.2121 22.7125C26.273 24.3165 24.9947 25.6958 23.4665 26.7538C21.9384 27.8119 20.1974 28.523 18.3655 28.8374C16.5336 29.1518 14.6551 29.0618 12.8617 28.5739C11.0682 28.086 9.40306 27.2118 7.98296 26.0126C6.56286 24.8135 5.4221 23.3184 4.6406 21.632C3.8591 19.9456 3.45576 18.1087 3.45883 16.25C3.44136 14.1947 3.92777 12.1664 4.8755 10.3425C5.33063 10.5026 5.8097 10.5841 6.29217 10.5834C7.41934 10.5834 8.50034 10.1356 9.29737 9.33858C10.0944 8.54155 10.5422 7.46055 10.5422 6.33338C10.535 5.87471 10.4537 5.42022 10.3013 4.98754C12.276 3.96886 14.4797 3.47548 16.7002 3.55488C18.9208 3.63427 21.0836 4.28377 22.9805 5.44088C23.1375 5.55572 23.3165 5.637 23.5063 5.67964C23.6961 5.72228 23.8927 5.72536 24.0838 5.68871C24.2748 5.65205 24.4563 5.57644 24.6168 5.46658C24.7774 5.35672 24.9136 5.21497 25.017 5.05016C25.1203 4.88536 25.1886 4.70103 25.2177 4.50866C25.2467 4.31629 25.2357 4.12001 25.1856 3.93205C25.1354 3.74409 25.047 3.56848 24.926 3.41616C24.805 3.26384 24.6539 3.13808 24.4822 3.04671C22.0962 1.55457 19.3507 0.736389 16.5371 0.67902C13.7236 0.621652 10.947 1.32724 8.50217 2.72088C7.8381 2.30928 7.07343 2.0887 6.29217 2.08338C5.165 2.08338 4.08399 2.53114 3.28696 3.32817C2.48993 4.1252 2.04217 5.20621 2.04217 6.33338C2.04749 7.11463 2.26807 7.87931 2.67967 8.54338C1.33065 10.8875 0.622207 13.5454 0.6255 16.25C0.629799 18.5184 1.12927 20.7585 2.08903 22.8139C3.04879 24.8692 4.4457 26.6902 6.18217 28.1498C7.91865 29.6093 9.95284 30.6721 12.1426 31.264C14.3324 31.8559 16.6251 31.9626 18.8604 31.5766C21.0957 31.1906 23.2198 30.3213 25.0843 29.0293C26.9488 27.7374 28.5088 26.0539 29.6553 24.0966C30.8017 22.1393 31.5071 19.9553 31.722 17.6971C31.937 15.4389 31.6563 13.161 30.8997 11.0225ZM6.29217 4.91671C6.57236 4.91671 6.84625 4.9998 7.07922 5.15546C7.31219 5.31113 7.49377 5.53238 7.601 5.79124C7.70822 6.0501 7.73627 6.33495 7.68161 6.60975C7.62695 6.88456 7.49202 7.13699 7.2939 7.33511C7.09578 7.53323 6.84335 7.66816 6.56854 7.72282C6.29374 7.77748 6.00889 7.74943 5.75003 7.6422C5.49117 7.53498 5.26992 7.3534 5.11425 7.12043C4.95859 6.88746 4.8755 6.61357 4.8755 6.33338C4.8755 5.95765 5.02476 5.59732 5.29043 5.33164C5.55611 5.06597 5.91644 4.91671 6.29217 4.91671Z" fill="#F5F5EB"/>
</svg>
