<svg width="32" height="32" viewBox="0 0 32 32" fill="none" xmlns="http://www.w3.org/2000/svg">
<path d="M27.5418 20.3016C28.7551 19.9883 29.8304 19.2817 30.5994 18.2922C31.3684 17.3028 31.7877 16.0864 31.7918 14.8332V13.4166C31.7999 12.0135 31.2872 10.6573 30.3529 9.6105C29.4186 8.56369 28.1292 7.90072 26.7343 7.74991C25.8941 5.64491 24.442 3.84018 22.5657 2.56883C20.6893 1.29748 18.4749 0.61792 16.2084 0.61792C13.9419 0.61792 11.7275 1.29748 9.85118 2.56883C7.97484 3.84018 6.5228 5.64491 5.6826 7.74991C4.28763 7.90072 2.99821 8.56369 2.06394 9.6105C1.12966 10.6573 0.616967 12.0135 0.625095 13.4166V14.8332C0.629164 16.0864 1.0485 17.3028 1.81749 18.2922C2.58648 19.2817 3.66176 19.9883 4.87509 20.3016V21.5907C4.87734 22.1892 4.99769 22.7814 5.22926 23.3332H4.87509C3.74793 23.3332 2.66692 23.781 1.86989 24.578C1.07286 25.3751 0.625095 26.4561 0.625095 27.5832C0.625095 28.7104 1.07286 29.7914 1.86989 30.5885C2.66692 31.3855 3.74793 31.8332 4.87509 31.8332H27.5418C28.6689 31.8332 29.7499 31.3855 30.547 30.5885C31.344 29.7914 31.7918 28.7104 31.7918 27.5832C31.7918 26.4561 31.344 25.3751 30.547 24.578C29.7499 23.781 28.6689 23.3332 27.5418 23.3332H27.1876C27.4192 22.7814 27.5395 22.1892 27.5418 21.5907V20.3016ZM27.5418 10.9657C27.9721 11.2142 28.3295 11.5714 28.5781 12.0016C28.8268 12.4317 28.9579 12.9197 28.9584 13.4166V14.8332C28.9579 15.3301 28.8268 15.8181 28.5781 16.2483C28.3295 16.6784 27.9721 17.0356 27.5418 17.2841V10.9657ZM3.45843 14.8332V13.4166C3.45894 12.9197 3.5901 12.4317 3.83875 12.0016C4.0874 11.5714 4.4448 11.2142 4.87509 10.9657V17.2841C4.4448 17.0356 4.0874 16.6784 3.83875 16.2483C3.5901 15.8181 3.45894 15.3301 3.45843 14.8332ZM28.9584 27.5832C28.9584 27.959 28.8092 28.3193 28.5435 28.585C28.2778 28.8507 27.9175 28.9999 27.5418 28.9999H26.1251C26.1251 28.6242 25.9758 28.2639 25.7102 27.9982C25.4445 27.7325 25.0842 27.5832 24.7084 27.5832C24.3327 27.5832 23.9724 27.7325 23.7067 27.9982C23.441 28.2639 23.2918 28.6242 23.2918 28.9999H17.6251C17.6251 28.6242 17.4758 28.2639 17.2102 27.9982C16.9445 27.7325 16.5842 27.5832 16.2084 27.5832C15.8327 27.5832 15.4724 27.7325 15.2067 27.9982C14.941 28.2639 14.7918 28.6242 14.7918 28.9999H9.1251C9.1251 28.6242 8.97584 28.2639 8.71016 27.9982C8.44449 27.7325 8.08415 27.5832 7.70843 27.5832C7.33271 27.5832 6.97237 27.7325 6.70669 27.9982C6.44102 28.2639 6.29176 28.6242 6.29176 28.9999H4.87509C4.49937 28.9999 4.13904 28.8507 3.87336 28.585C3.60768 28.3193 3.45843 27.959 3.45843 27.5832C3.45843 27.2075 3.60768 26.8472 3.87336 26.5815C4.13904 26.3158 4.49937 26.1666 4.87509 26.1666H27.5418C27.9175 26.1666 28.2778 26.3158 28.5435 26.5815C28.8092 26.8472 28.9584 27.2075 28.9584 27.5832ZM9.45093 23.3332C8.98879 23.3332 8.54558 23.1497 8.21879 22.8229C7.89201 22.4961 7.70843 22.0529 7.70843 21.5907V11.9999C7.70843 9.74557 8.60396 7.58356 10.198 5.9895C11.7921 4.39544 13.9541 3.49991 16.2084 3.49991C18.4628 3.49991 20.6248 4.39544 22.2188 5.9895C23.8129 7.58356 24.7084 9.74557 24.7084 11.9999V15.8249L22.5268 19.0832H19.0418C18.666 19.0832 18.3057 19.2325 18.04 19.4982C17.7743 19.7639 17.6251 20.1242 17.6251 20.4999C17.6251 20.8756 17.7743 21.236 18.04 21.5016C18.3057 21.7673 18.666 21.9166 19.0418 21.9166H23.2918C23.5251 21.9154 23.7545 21.8565 23.9597 21.7453C24.1648 21.6341 24.3393 21.474 24.4676 21.2791L24.7084 20.9249V21.5907C24.7084 22.0529 24.5248 22.4961 24.1981 22.8229C23.8713 23.1497 23.4281 23.3332 22.9659 23.3332H9.45093Z" fill="#F5F5EB"/>
<path d="M23.2917 13.7706V11.2914C23.282 10.4223 23.0861 9.56538 22.7171 8.77845C22.348 7.99153 21.8145 7.29291 21.1525 6.72973C19.7761 5.55044 18.0208 4.90666 16.2083 4.9164C14.4259 4.83132 12.6819 5.45327 11.3555 6.64702C10.0291 7.84078 9.2275 9.50986 9.125 11.2914V13.7706C9.125 16.3347 12.695 17.6664 16.2083 17.6664C19.7217 17.6664 23.2917 16.3347 23.2917 13.7706ZM16.2083 14.8331C14.7126 14.9651 13.2159 14.5909 11.9583 13.7706V11.2914C12.0625 10.2624 12.5659 9.31519 13.3604 8.65306C14.155 7.99093 15.1774 7.66663 16.2083 7.74973C17.3322 7.73894 18.4227 8.13094 19.2825 8.85473C19.6402 9.15418 19.93 9.52634 20.1328 9.94646C20.3355 10.3666 20.4465 10.8251 20.4583 11.2914V13.6714C20.3025 14.0114 18.8292 14.8331 16.2083 14.8331Z" fill="#F5F5EB"/>
</svg>
