<svg width="32" height="32" viewBox="0 0 32 32" fill="none" xmlns="http://www.w3.org/2000/svg">
<path d="M29.9585 28.3332H28.5418V9.91658C28.5418 9.54086 28.3926 9.18052 28.1269 8.91484C27.8612 8.64917 27.5009 8.49991 27.1252 8.49991H8.7085V7.08325C9.75503 7.08088 10.7639 6.69247 11.5418 5.99241C11.8199 5.7388 11.9858 5.38512 12.003 5.00919C12.0203 4.63326 11.8875 4.26586 11.6339 3.98783C11.3803 3.70979 11.0266 3.54389 10.6507 3.52663C10.2748 3.50936 9.90736 3.64213 9.62933 3.89575C9.37905 4.12734 9.04946 4.25411 8.7085 4.24991C8.33277 4.24991 7.97244 4.10066 7.70676 3.83498C7.44108 3.5693 7.29183 3.20897 7.29183 2.83325C7.29308 2.62217 7.34148 2.41405 7.4335 2.22408C7.5913 1.88217 7.60682 1.49158 7.47664 1.13823C7.34646 0.78488 7.08124 0.497717 6.73933 0.339913C6.39742 0.182109 6.00683 0.166591 5.65348 0.296772C5.30013 0.426954 5.01297 0.692171 4.85516 1.03408C4.59513 1.59831 4.45984 2.21198 4.4585 2.83325C4.46169 3.42737 4.58941 4.01422 4.83342 4.55593C5.07744 5.09764 5.43232 5.58217 5.87516 5.97825V8.49991H4.4585C4.08277 8.49991 3.72244 8.64917 3.45676 8.91484C3.19108 9.18052 3.04183 9.54086 3.04183 9.91658V28.3332H1.62516C1.24944 28.3332 0.889105 28.4825 0.623428 28.7482C0.357752 29.0139 0.208496 29.3742 0.208496 29.7499C0.208496 30.1256 0.357752 30.486 0.623428 30.7516C0.889105 31.0173 1.24944 31.1666 1.62516 31.1666H29.9585C30.3342 31.1666 30.6946 31.0173 30.9602 30.7516C31.2259 30.486 31.3752 30.1256 31.3752 29.7499C31.3752 29.3742 31.2259 29.0139 30.9602 28.7482C30.6946 28.4825 30.3342 28.3332 29.9585 28.3332ZM10.1252 28.3332V19.8332H15.7918V28.3332H10.1252ZM18.6252 28.3332V18.4166C18.6252 18.0409 18.4759 17.6805 18.2102 17.4148C17.9446 17.1492 17.5842 16.9999 17.2085 16.9999H8.7085C8.33277 16.9999 7.97244 17.1492 7.70676 17.4148C7.44108 17.6805 7.29183 18.0409 7.29183 18.4166V28.3332H5.87516V11.3332H25.7085V12.7499H17.2085C16.8328 12.7499 16.4724 12.8992 16.2068 13.1648C15.9411 13.4305 15.7918 13.7909 15.7918 14.1666C15.7918 14.5423 15.9411 14.9026 16.2068 15.1683C16.4724 15.434 16.8328 15.5832 17.2085 15.5832H25.7085V28.3332H18.6252Z" fill="#F5F5EB"/>
<path d="M12.9582 12.75H8.70817C8.33245 12.75 7.97211 12.8993 7.70644 13.1649C7.44076 13.4306 7.2915 13.7909 7.2915 14.1667C7.2915 14.5424 7.44076 14.9027 7.70644 15.1684C7.97211 15.4341 8.33245 15.5833 8.70817 15.5833H12.9582C13.3339 15.5833 13.6942 15.4341 13.9599 15.1684C14.2256 14.9027 14.3748 14.5424 14.3748 14.1667C14.3748 13.7909 14.2256 13.4306 13.9599 13.1649C13.6942 12.8993 13.3339 12.75 12.9582 12.75Z" fill="#F5F5EB"/>
</svg>
