<svg width="32" height="32" viewBox="0 0 32 32" fill="none" xmlns="http://www.w3.org/2000/svg">
<path d="M29.9585 14.1667H20.0418V11.3333C20.0418 10.5819 19.7433 9.86122 19.212 9.32986C18.6806 8.79851 17.9599 8.5 17.2085 8.5V7.08333C17.9599 7.08333 18.6806 6.78482 19.212 6.25347C19.7433 5.72212 20.0418 5.00145 20.0418 4.25V2.83333C20.0418 2.08189 19.7433 1.36122 19.212 0.829864C18.6806 0.298511 17.9599 0 17.2085 0H14.3752C13.6237 0 12.903 0.298511 12.3717 0.829864C11.8403 1.36122 11.5418 2.08189 11.5418 2.83333V4.25C11.5418 5.00145 11.8403 5.72212 12.3717 6.25347C12.903 6.78482 13.6237 7.08333 14.3752 7.08333V8.5C13.6237 8.5 12.903 8.79851 12.3717 9.32986C11.8403 9.86122 11.5418 10.5819 11.5418 11.3333V14.1667H1.62516C1.24944 14.1667 0.889105 14.3159 0.623428 14.5816C0.357752 14.8473 0.208496 15.2076 0.208496 15.5833C0.208496 15.9591 0.357752 16.3194 0.623428 16.5851C0.889105 16.8507 1.24944 17 1.62516 17H11.5418V19.8333C11.5418 20.5848 11.8403 21.3054 12.3717 21.8368C12.903 22.3682 13.6237 22.6667 14.3752 22.6667V24.0833C13.6237 24.0833 12.903 24.3818 12.3717 24.9132C11.8403 25.4445 11.5418 26.1652 11.5418 26.9167V28.3333C11.5418 29.0848 11.8403 29.8054 12.3717 30.3368C12.903 30.8682 13.6237 31.1667 14.3752 31.1667H17.2085C17.9599 31.1667 18.6806 30.8682 19.212 30.3368C19.7433 29.8054 20.0418 29.0848 20.0418 28.3333V26.9167C20.0418 26.1652 19.7433 25.4445 19.212 24.9132C18.6806 24.3818 17.9599 24.0833 17.2085 24.0833V22.6667C17.9599 22.6667 18.6806 22.3682 19.212 21.8368C19.7433 21.3054 20.0418 20.5848 20.0418 19.8333V17H29.9585C30.3342 17 30.6946 16.8507 30.9602 16.5851C31.2259 16.3194 31.3752 15.9591 31.3752 15.5833C31.3752 15.2076 31.2259 14.8473 30.9602 14.5816C30.6946 14.3159 30.3342 14.1667 29.9585 14.1667ZM14.3752 2.83333H17.2085V4.25H14.3752V2.83333ZM17.2085 28.3333H14.3752V26.9167H17.2085V28.3333ZM14.3752 19.8333V11.3333H17.2085V15.5833V19.8333H14.3752Z" fill="#F5F5EB"/>
<path d="M1.62467 12.7499C2.0004 12.7499 2.36073 12.6007 2.62641 12.335C2.89209 12.0693 3.04134 11.709 3.04134 11.3333V8.49992C3.04134 8.1242 2.89209 7.76386 2.62641 7.49818C2.36073 7.23251 2.0004 7.08325 1.62467 7.08325C1.24895 7.08325 0.888616 7.23251 0.62294 7.49818C0.357263 7.76386 0.208008 8.1242 0.208008 8.49992V11.3333C0.208008 11.709 0.357263 12.0693 0.62294 12.335C0.888616 12.6007 1.24895 12.7499 1.62467 12.7499Z" fill="#F5F5EB"/>
<path d="M7.29118 12.7499C7.6669 12.7499 8.02724 12.6007 8.29291 12.335C8.55859 12.0693 8.70784 11.709 8.70784 11.3333V8.49992C8.70784 8.1242 8.55859 7.76386 8.29291 7.49818C8.02724 7.23251 7.6669 7.08325 7.29118 7.08325C6.91545 7.08325 6.55512 7.23251 6.28944 7.49818C6.02377 7.76386 5.87451 8.1242 5.87451 8.49992V11.3333C5.87451 11.709 6.02377 12.0693 6.28944 12.335C6.55512 12.6007 6.91545 12.7499 7.29118 12.7499Z" fill="#F5F5EB"/>
<path d="M7.29118 18.4167C6.91545 18.4167 6.55512 18.566 6.28944 18.8317C6.02377 19.0974 5.87451 19.4577 5.87451 19.8334V22.6667C5.87451 23.0425 6.02377 23.4028 6.28944 23.6685C6.55512 23.9342 6.91545 24.0834 7.29118 24.0834C7.6669 24.0834 8.02724 23.9342 8.29291 23.6685C8.55859 23.4028 8.70784 23.0425 8.70784 22.6667V19.8334C8.70784 19.4577 8.55859 19.0974 8.29291 18.8317C8.02724 18.566 7.6669 18.4167 7.29118 18.4167Z" fill="#F5F5EB"/>
<path d="M1.62467 18.4167C1.24895 18.4167 0.888616 18.566 0.62294 18.8317C0.357263 19.0974 0.208008 19.4577 0.208008 19.8334V22.6667C0.208008 23.0425 0.357263 23.4028 0.62294 23.6685C0.888616 23.9342 1.24895 24.0834 1.62467 24.0834C2.0004 24.0834 2.36073 23.9342 2.62641 23.6685C2.89209 23.4028 3.04134 23.0425 3.04134 22.6667V19.8334C3.04134 19.4577 2.89209 19.0974 2.62641 18.8317C2.36073 18.566 2.0004 18.4167 1.62467 18.4167Z" fill="#F5F5EB"/>
<path d="M24.2912 12.7499C24.6669 12.7499 25.0272 12.6007 25.2929 12.335C25.5586 12.0693 25.7078 11.709 25.7078 11.3333V8.49992C25.7078 8.1242 25.5586 7.76386 25.2929 7.49818C25.0272 7.23251 24.6669 7.08325 24.2912 7.08325C23.9155 7.08325 23.5551 7.23251 23.2894 7.49818C23.0238 7.76386 22.8745 8.1242 22.8745 8.49992V11.3333C22.8745 11.709 23.0238 12.0693 23.2894 12.335C23.5551 12.6007 23.9155 12.7499 24.2912 12.7499Z" fill="#F5F5EB"/>
<path d="M29.9582 7.08325C29.5824 7.08325 29.2221 7.23251 28.9564 7.49818C28.6908 7.76386 28.5415 8.1242 28.5415 8.49992V11.3333C28.5415 11.709 28.6908 12.0693 28.9564 12.335C29.2221 12.6007 29.5824 12.7499 29.9582 12.7499C30.3339 12.7499 30.6942 12.6007 30.9599 12.335C31.2256 12.0693 31.3748 11.709 31.3748 11.3333V8.49992C31.3748 8.1242 31.2256 7.76386 30.9599 7.49818C30.6942 7.23251 30.3339 7.08325 29.9582 7.08325Z" fill="#F5F5EB"/>
<path d="M29.9582 18.4167C29.5824 18.4167 29.2221 18.566 28.9564 18.8317C28.6908 19.0974 28.5415 19.4577 28.5415 19.8334V22.6667C28.5415 23.0425 28.6908 23.4028 28.9564 23.6685C29.2221 23.9342 29.5824 24.0834 29.9582 24.0834C30.3339 24.0834 30.6942 23.9342 30.9599 23.6685C31.2256 23.4028 31.3748 23.0425 31.3748 22.6667V19.8334C31.3748 19.4577 31.2256 19.0974 30.9599 18.8317C30.6942 18.566 30.3339 18.4167 29.9582 18.4167Z" fill="#F5F5EB"/>
<path d="M24.2912 18.4167C23.9155 18.4167 23.5551 18.566 23.2894 18.8317C23.0238 19.0974 22.8745 19.4577 22.8745 19.8334V22.6667C22.8745 23.0425 23.0238 23.4028 23.2894 23.6685C23.5551 23.9342 23.9155 24.0834 24.2912 24.0834C24.6669 24.0834 25.0272 23.9342 25.2929 23.6685C25.5586 23.4028 25.7078 23.0425 25.7078 22.6667V19.8334C25.7078 19.4577 25.5586 19.0974 25.2929 18.8317C25.0272 18.566 24.6669 18.4167 24.2912 18.4167Z" fill="#F5F5EB"/>
</svg>
