<svg width="24" height="31" viewBox="0 0 24 31" fill="none" xmlns="http://www.w3.org/2000/svg">
<path d="M23.2532 26.6541L18.6632 18.1541C19.7111 18.0281 20.7363 17.7563 21.709 17.3466C22.1302 17.1747 22.5021 16.9009 22.7914 16.5498C23.0807 16.1987 23.2783 15.7813 23.3665 15.335C23.4633 14.8722 23.4427 14.3925 23.3066 13.9396C23.1705 13.4868 22.9232 13.0753 22.5874 12.7425L11.4665 1.57914C11.1411 1.25908 10.7432 1.02238 10.3066 0.889184C9.87 0.755989 9.4077 0.730244 8.95903 0.814139C8.48661 0.908848 8.04614 1.12247 7.67927 1.43481C7.3124 1.74714 7.03124 2.14788 6.86236 2.59914C6.08877 4.59372 5.89109 6.76551 6.29185 8.86698C6.69261 10.9685 7.67568 12.9151 9.12903 14.485L0.884029 26.385C0.591354 26.8067 0.418754 27.3 0.384671 27.8122C0.350588 28.3245 0.456303 28.8363 0.690519 29.2931C0.924736 29.7499 1.27865 30.1345 1.71446 30.4058C2.15027 30.677 2.65159 30.8248 3.16486 30.8333H20.7599C21.2503 30.8333 21.7324 30.706 22.1589 30.4638C22.5855 30.2216 22.9418 29.8729 23.1931 29.4516C23.4444 29.0304 23.582 28.5512 23.5926 28.0608C23.6031 27.5705 23.4862 27.0858 23.2532 26.6541ZM9.46903 3.59081L20.689 14.7258C19.5654 15.179 18.3578 15.3867 17.1474 15.335L14.4557 10.3341C14.3412 10.1211 14.174 9.94096 13.9702 9.81082C13.7663 9.68069 13.5325 9.60491 13.2911 9.59071C13.0497 9.57651 12.8086 9.62435 12.5909 9.72969C12.3732 9.83502 12.1861 9.99434 12.0474 10.1925L10.744 12.0908C9.80455 10.9104 9.19216 9.50351 8.96837 8.01153C8.74457 6.51955 8.91724 4.99495 9.46903 3.59081ZM3.16486 28L13.0815 13.7058L20.7599 28H3.16486Z" fill="#F5F5EB"/>
</svg>
