<svg width="32" height="32" viewBox="0 0 32 32" fill="none" xmlns="http://www.w3.org/2000/svg">
<path d="M27.8536 26.5773C29.8522 24.3329 31.1592 21.5584 31.6171 18.5881C32.075 15.6179 31.6642 12.5786 30.4342 9.83646C29.2043 7.09433 27.2077 4.76634 24.685 3.13299C22.1622 1.49964 19.221 0.630615 16.2157 0.630615C13.2103 0.630615 10.2691 1.49964 7.74638 3.13299C5.22364 4.76634 3.22702 7.09433 1.99709 9.83646C0.767155 12.5786 0.356379 15.6179 0.814253 18.5881C1.27213 21.5584 2.57912 24.3329 4.57775 26.5773C4.6364 26.6548 4.70286 26.726 4.77608 26.7898C6.53417 28.7247 8.75082 30.1863 11.2219 31.0398C14.0791 32.0133 17.1587 32.1296 20.0812 31.3744C23.0037 30.6192 25.6415 29.0256 27.6694 26.7898L27.8536 26.5773ZM23.8161 23.4323C21.4503 22.299 17.6677 21.8031 15.8969 22.894C15.5801 23.0633 15.3121 23.3111 15.1186 23.6138C14.9251 23.9164 14.8126 24.2637 14.7919 24.6223C13.9038 25.9544 12.803 27.1317 11.5336 28.1073C10.2056 27.5843 8.97491 26.842 7.89275 25.9115C10.9103 23.1773 11.8877 18.1765 11.9586 17.9356C12.0275 17.5719 11.9512 17.1956 11.7461 16.8873C11.3128 16.2551 10.974 15.5631 10.7403 14.8331C11.5495 14.7501 12.3087 14.4024 12.9004 13.8441C13.492 13.2857 13.883 12.5479 14.0127 11.7448C14.3952 10.5831 14.4802 10.5831 14.7919 10.5831C15.2069 10.58 15.6161 10.4858 15.9907 10.3071C16.3652 10.1284 16.6959 9.86957 16.9594 9.54897C18.1211 8.13231 18.0786 5.51147 17.8661 3.61314C18.6802 3.7191 19.482 3.90414 20.2603 4.16564C19.7502 7.22564 19.3819 11.504 20.8552 12.9773C20.8719 13.3445 20.8337 13.7122 20.7419 14.0681C20.5011 15.3148 20.0619 17.624 22.6544 18.9131C23.4215 19.2877 24.2658 19.4769 25.1194 19.4656C26.3583 19.4317 27.5794 19.1625 28.7177 18.6723C28.3258 20.659 27.4662 22.5238 26.2102 24.1123L23.8161 23.4323ZM28.9586 15.4565C27.6694 16.1506 25.3744 17.0998 23.9719 16.3915C23.3911 16.094 23.3203 15.9665 23.5753 14.6065C23.7905 14.0062 23.8462 13.3603 23.737 12.7321C23.6277 12.1038 23.3572 11.5147 22.9519 11.0223C22.5836 10.4698 22.6261 8.07564 22.9519 5.42647C24.6805 6.49805 26.1277 7.9676 27.1726 9.71243C28.2175 11.4573 28.8299 13.4268 28.9586 15.4565ZM15.0044 3.49981C15.2452 5.45481 15.1602 7.35314 14.7919 7.74981C13.9451 7.78236 13.1358 8.10819 12.5027 8.67156C11.8695 9.23492 11.4519 10.0008 11.3211 10.8381C10.9386 11.9998 10.8536 11.9998 10.5419 11.9998C10.0664 11.9618 9.58983 12.0602 9.16827 12.2836C8.7467 12.5069 8.39759 12.8458 8.16192 13.2606C7.38275 14.6773 8.33192 16.7456 9.04025 17.9356C8.56924 20.1367 7.51755 22.1716 5.99442 23.829C4.63838 22.0157 3.78968 19.874 3.53558 17.624C3.28147 15.3741 3.63112 13.097 4.54858 11.0269C5.46605 8.95689 6.91822 7.16849 8.75584 5.84559C10.5935 4.52269 12.7502 3.71302 15.0044 3.49981ZM14.8769 28.9998C16.1013 27.9947 17.0476 26.6924 17.6252 25.2173C19.3618 24.9553 21.1369 25.2322 22.7111 26.0106L22.9519 26.1098L23.9436 26.4073C21.7218 28.1009 19.0023 29.0124 16.2086 28.9998C15.765 29.023 15.3205 29.023 14.8769 28.9998Z" fill="#F5F5EB"/>
</svg>
