<svg width="44" height="44" viewBox="0 0 44 44" fill="none" xmlns="http://www.w3.org/2000/svg">
<rect x="42.5" y="1.5" width="41" height="41" rx="20.5" transform="rotate(90 42.5 1.5)" fill="#D3D3D9" stroke="#54546B" stroke-width="3"/>
<circle cx="35.217" cy="18.6961" r="1.65217" transform="rotate(90 35.217 18.6961)" fill="#222240"/>
<circle cx="35.217" cy="25.3055" r="1.65217" transform="rotate(90 35.217 25.3055)" fill="#222240"/>
<circle cx="28.6086" cy="12.0877" r="1.65217" transform="rotate(90 28.6086 12.0877)" fill="#222240"/>
<circle cx="28.6086" cy="18.6961" r="1.65217" transform="rotate(90 28.6086 18.6961)" fill="#222240"/>
<circle cx="28.6086" cy="25.3055" r="1.65217" transform="rotate(90 28.6086 25.3055)" fill="#222240"/>
<circle cx="28.6086" cy="31.9139" r="1.65217" transform="rotate(90 28.6086 31.9139)" fill="#222240"/>
<circle cx="22.0002" cy="12.0877" r="1.65217" transform="rotate(90 22.0002 12.0877)" fill="#222240"/>
<circle cx="22.0002" cy="18.6961" r="1.65217" transform="rotate(90 22.0002 18.6961)" fill="#222240"/>
<circle cx="22.0002" cy="25.3055" r="1.65217" transform="rotate(90 22.0002 25.3055)" fill="#222240"/>
<circle cx="22.0002" cy="31.9139" r="1.65217" transform="rotate(90 22.0002 31.9139)" fill="#222240"/>
<circle cx="15.3918" cy="12.0877" r="1.65217" transform="rotate(90 15.3918 12.0877)" fill="#222240"/>
<circle cx="15.3918" cy="18.6961" r="1.65217" transform="rotate(90 15.3918 18.6961)" fill="#222240"/>
<circle cx="15.3918" cy="25.3055" r="1.65217" transform="rotate(90 15.3918 25.3055)" fill="#222240"/>
<circle cx="15.3918" cy="31.9139" r="1.65217" transform="rotate(90 15.3918 31.9139)" fill="#222240"/>
<circle cx="8.7824" cy="18.6961" r="1.65217" transform="rotate(90 8.7824 18.6961)" fill="#222240"/>
<circle cx="8.7824" cy="25.3055" r="1.65217" transform="rotate(90 8.7824 25.3055)" fill="#222240"/>
</svg>
